<?xml version="1.0" standalone="no"?>
<!DOCTYPE svg PUBLIC "-//W3C//DTD SVG 20010904//EN"
 "http://www.w3.org/TR/2001/REC-SVG-20010904/DTD/svg10.dtd">
<svg version="1.0" xmlns="http://www.w3.org/2000/svg"
 width="225.000000pt" height="225.000000pt" viewBox="0 0 225.000000 225.000000"
 preserveAspectRatio="xMidYMid meet">
<metadata>
Created by potrace 1.16, written by Peter Selinger 2001-2019
</metadata>
<g transform="translate(0.000000,225.000000) scale(0.100000,-0.100000)"
fill="#000000" stroke="none">
<path d="M1014 1812 c-89 -32 -159 -94 -204 -182 -35 -67 -40 -195 -10 -272
30 -81 102 -157 182 -194 53 -24 76 -28 143 -28 106 0 185 34 255 111 70 76
93 144 88 253 -5 100 -32 161 -98 228 -91 90 -240 126 -356 84z m227 -109
c182 -93 182 -350 0 -445 -139 -73 -312 -2 -356 146 -19 63 -19 101 0 157 50
146 216 212 356 142z"/>
<path d="M773 1009 c-117 -37 -228 -145 -278 -269 -23 -58 -34 -282 -15 -305
15 -18 54 -20 67 -2 6 6 13 63 16 125 5 90 10 123 30 166 35 77 98 140 176
179 l66 32 290 0 290 0 57 -27 c149 -70 218 -194 218 -393 0 -75 9 -95 46 -95
41 0 47 21 42 152 -3 86 -10 136 -23 168 -51 127 -161 233 -281 270 -60 18
-92 20 -353 19 -256 0 -293 -2 -348 -20z"/>
</g>
</svg>
