<?xml version="1.0" encoding="UTF-8" standalone="no"?>
<!DOCTYPE svg PUBLIC "-//W3C//DTD SVG 20010904//EN"
              "http://www.w3.org/TR/2001/REC-SVG-20010904/DTD/svg10.dtd">

<svg xmlns="http://www.w3.org/2000/svg"
     width="3.24074in" height="1.888889in"
     viewBox="0 0 875 510">
  <path id="Imported Path"
        fill="black" stroke="black" stroke-width="1"
        d="M 15.00,258.00
           C 15.00,258.38 15.62,260.12 16.38,262.12
             18.00,266.38 35.00,315.00 40.12,330.00
             42.00,335.88 44.50,342.87 45.50,345.62
             50.75,360.00 59.13,383.88 60.75,389.00
             60.75,389.00 62.62,395.00 62.62,395.00
             62.62,395.00 81.25,395.00 81.25,395.00
             81.25,395.00 99.75,395.00 99.75,395.00
             99.75,395.00 100.75,391.00 100.75,391.00
             101.12,388.75 102.25,385.25 103.12,383.12
             104.00,381.12 106.50,373.75 108.75,366.88
             110.88,360.00 114.00,350.75 115.62,346.25
             117.25,341.75 120.13,333.25 122.00,327.12
             123.88,321.12 125.75,316.25 126.12,316.25
             126.50,316.25 132.75,334.00 139.88,355.62
             139.88,355.62 152.88,395.00 152.88,395.00
             152.88,395.00 170.75,395.00 170.75,395.00
             186.50,395.00 188.75,394.75 189.88,392.88
             190.50,391.62 193.88,382.12 197.50,371.88
             201.12,361.50 207.63,342.75 212.13,330.00
             216.50,317.25 220.88,304.62 221.88,301.88
             222.75,299.12 226.38,288.75 229.88,278.75
             233.38,268.75 236.25,259.88 236.25,259.00
             236.25,257.75 231.88,257.50 216.62,257.75
             216.62,257.75 197.00,258.12 197.00,258.12
             197.00,258.12 187.50,289.38 187.50,289.38
             182.25,306.50 176.38,325.62 174.38,331.88
             174.38,331.88 170.75,343.00 170.75,343.00
             170.75,343.00 166.75,330.62 166.75,330.62
             164.63,323.75 161.00,312.25 158.75,305.00
             156.50,297.75 152.75,285.62 150.38,278.12
             148.00,270.50 145.62,263.00 145.12,261.25
             145.12,261.25 144.12,258.12 144.12,258.12
             144.12,258.12 126.25,258.12 126.25,258.12
             126.25,258.12 108.38,258.12 108.38,258.12
             108.38,258.12 107.38,261.25 107.38,261.25
             106.88,263.00 104.50,270.50 102.12,278.12
             94.50,302.50 87.63,324.12 84.62,333.62
             84.62,333.62 81.75,342.87 81.75,342.87
             81.75,342.87 72.62,313.00 72.62,313.00
             67.62,296.62 61.75,277.38 59.62,270.25
             59.62,270.25 55.75,257.50 55.75,257.50
             55.75,257.50 35.38,257.50 35.38,257.50
             24.12,257.50 15.00,257.75 15.00,258.00 Z
           M 782.50,256.12
           C 782.50,256.62 779.25,257.50 775.38,257.88
             771.38,258.25 768.00,259.25 767.75,260.00
             767.50,260.62 766.50,261.25 765.50,261.25
             762.75,261.25 750.00,268.62 746.88,272.00
             745.38,273.62 743.62,275.00 743.00,275.12
             741.38,275.25 730.00,290.12 730.00,292.12
             730.00,293.00 729.50,293.75 728.75,293.75
             728.12,293.75 727.50,294.50 727.50,295.25
             727.50,296.12 726.63,298.50 725.62,300.50
             724.50,302.50 723.38,307.50 722.88,311.50
             722.50,315.50 721.63,319.12 721.12,319.50
             719.62,320.37 719.62,333.75 721.12,333.75
             721.63,333.75 722.50,337.25 722.88,341.50
             723.25,345.75 724.13,349.50 724.88,349.75
             725.62,350.00 726.25,351.00 726.25,352.00
             726.25,354.12 731.75,364.50 734.38,367.50
             736.25,369.50 744.13,377.38 748.25,381.38
             751.63,384.62 767.00,392.50 769.88,392.50
             771.00,392.50 772.75,393.25 773.63,394.12
             775.62,396.12 811.00,396.25 812.25,394.25
             812.75,393.50 815.25,392.50 817.88,392.00
             820.38,391.50 822.50,390.62 822.50,390.00
             822.50,389.50 824.25,388.62 826.25,388.12
             828.38,387.62 830.00,386.75 830.00,386.12
             830.00,385.50 830.75,385.00 831.63,385.00
             832.62,385.00 835.00,383.38 837.00,381.25
             839.00,379.25 841.25,377.50 841.88,377.50
             845.50,377.25 861.25,352.75 861.25,347.25
             861.25,346.12 861.88,345.00 862.75,344.75
             864.75,344.00 864.88,311.00 862.88,308.50
             862.12,307.62 861.25,304.75 860.75,302.12
             860.25,299.62 859.38,297.50 858.75,297.50
             858.25,297.50 857.38,295.75 856.88,293.75
             856.38,291.62 855.50,290.00 854.88,290.00
             854.25,290.00 853.75,289.50 853.75,288.75
             853.75,285.50 838.00,270.00 831.25,266.62
             828.88,265.38 826.75,264.00 826.50,263.38
             826.25,262.88 825.38,262.50 824.62,262.50
             823.75,262.50 821.50,261.62 819.38,260.50
             817.38,259.38 812.62,258.25 809.13,257.88
             805.50,257.50 802.50,256.62 802.50,256.12
             802.50,255.50 798.00,255.00 792.50,255.00
             787.00,255.00 782.50,255.50 782.50,256.12 Z
           M 601.25,257.88
           C 567.25,269.38 548.62,301.12 554.25,338.12
             560.25,377.75 593.62,402.12 635.25,397.25
             652.50,395.25 666.00,388.88 677.88,376.88
             704.50,350.12 704.00,301.50 677.00,274.62
             669.00,266.75 659.00,260.88 647.00,257.00
             637.25,253.88 611.75,254.38 601.25,257.88 Z
           M 634.88,290.75
           C 642.38,292.88 650.25,299.50 653.75,306.25
             659.50,317.38 659.38,335.12 653.75,346.38
             650.38,352.75 641.88,359.75 634.50,361.88
             626.75,364.25 624.88,364.25 616.12,361.75
             607.38,359.25 600.25,353.00 596.25,344.38
             592.25,335.62 592.00,317.00 595.88,308.75
             600.62,298.75 606.88,293.38 616.88,290.38
             623.88,288.38 627.38,288.50 634.88,290.75 Z
           M 286.25,257.00
           C 265.12,263.50 249.12,279.25 241.25,301.38
             238.75,308.25 238.38,311.88 238.38,326.25
             238.38,341.25 238.62,344.12 241.50,352.00
             243.25,356.88 246.25,363.25 248.12,366.38
             255.62,378.38 269.12,389.38 282.50,394.25
             295.88,399.00 317.88,399.00 331.25,394.00
             350.25,387.00 366.38,370.75 371.75,352.75
             371.75,352.75 372.62,350.00 372.62,350.00
             372.62,350.00 352.62,350.00 352.62,350.00
             333.12,350.00 332.50,350.12 331.13,352.75
             323.63,366.88 293.75,367.38 283.50,353.62
             280.62,349.75 277.50,342.50 277.50,339.88
             277.50,339.25 299.25,338.62 326.00,338.50
             326.00,338.50 374.38,338.12 374.38,338.12
             374.38,338.12 374.75,327.50 374.75,327.50
             375.88,293.75 357.88,267.00 327.00,257.00
             319.12,254.50 294.38,254.50 286.25,257.00 Z
           M 321.00,289.25
           C 327.25,292.50 337.00,305.88 334.75,308.25
             334.38,308.50 321.38,308.62 305.88,308.50
             305.88,308.50 277.62,308.12 277.62,308.12
             277.62,308.12 279.88,303.12 279.88,303.12
             283.75,294.75 288.75,290.12 297.38,287.38
             302.00,285.88 316.62,287.00 321.00,289.25 Z
           M 492.50,234.62
           C 492.50,234.62 492.50,270.50 492.50,270.50
             492.50,270.50 489.88,267.75 489.88,267.75
             486.13,263.75 479.00,259.50 472.00,257.12
             463.50,254.25 441.50,254.25 433.00,257.12
             406.13,266.12 390.00,292.00 390.00,326.25
             390.00,352.75 398.38,372.25 415.88,386.00
             436.25,402.12 471.75,401.88 489.88,385.62
             489.88,385.62 495.00,381.00 495.00,381.00
             495.00,381.00 495.00,388.00 495.00,388.00
             495.00,388.00 495.00,395.00 495.00,395.00
             495.00,395.00 513.12,395.00 513.12,395.00
             513.12,395.00 531.25,395.00 531.25,395.00
             531.25,395.00 531.25,296.88 531.25,296.88
             531.25,296.88 531.25,198.75 531.25,198.75
             531.25,198.75 511.88,198.75 511.88,198.75
             511.88,198.75 492.50,198.75 492.50,198.75
             492.50,198.75 492.50,234.62 492.50,234.62 Z
           M 470.25,290.75
           C 483.25,295.12 491.13,306.75 492.25,323.25
             493.63,344.25 481.88,361.00 464.00,363.38
             456.38,364.38 446.13,360.88 440.25,355.00
             423.50,338.88 426.25,305.38 445.12,293.50
             452.62,288.75 461.62,287.75 470.25,290.75 Z
           M 783.12,98.75
           C 782.75,99.38 780.38,100.00 777.88,100.00
             775.50,100.00 771.50,100.87 769.00,102.00
             756.63,107.37 755.00,108.25 755.00,109.00
             755.00,109.62 754.25,110.00 753.25,110.00
             752.25,110.00 749.75,111.62 747.75,113.75
             745.62,115.75 743.38,117.50 742.62,117.50
             741.88,117.50 741.25,117.87 741.25,118.37
             741.25,119.00 739.00,121.88 736.25,125.00
             733.50,128.12 730.88,131.88 730.50,133.38
             730.00,135.00 729.25,136.25 728.75,136.25
             728.12,136.25 727.38,137.88 726.88,140.00
             726.38,142.00 725.62,143.75 725.00,143.75
             724.38,143.75 723.62,147.00 723.12,150.88
             722.75,154.87 721.88,159.12 721.25,160.25
             719.75,163.00 719.62,175.00 721.12,175.00
             721.63,175.00 722.50,178.25 722.88,182.12
             723.25,186.12 724.38,191.00 725.50,193.12
             726.63,195.12 727.50,197.62 727.50,198.38
             727.50,199.25 728.00,200.00 728.62,200.00
             729.25,200.00 730.12,201.25 730.50,202.75
             730.88,204.38 732.50,207.25 734.00,209.25
             738.50,215.00 750.38,226.25 752.75,227.00
             754.00,227.37 755.00,228.12 755.00,228.75
             755.00,229.38 756.75,230.12 758.75,230.62
             760.88,231.12 762.50,231.88 762.50,232.50
             762.50,233.00 764.62,233.88 767.25,234.38
             769.75,234.87 772.62,235.88 773.63,236.62
             776.00,238.62 811.00,238.62 812.25,236.75
             812.75,236.00 815.25,235.00 817.88,234.50
             820.38,234.00 822.50,233.12 822.50,232.50
             822.50,232.00 824.25,231.12 826.25,230.62
             828.38,230.12 830.00,229.25 830.00,228.62
             830.00,228.00 830.75,227.50 831.63,227.50
             832.50,227.50 835.00,225.75 837.25,223.75
             839.50,221.62 841.75,220.00 842.00,220.00
             843.63,220.00 853.75,207.12 853.75,205.12
             853.75,204.38 854.25,203.75 854.88,203.75
             855.50,203.75 856.38,202.00 856.88,200.00
             857.38,197.87 858.12,196.25 858.75,196.25
             859.38,196.25 860.25,194.38 860.62,192.12
             861.13,190.00 862.12,187.37 862.88,186.50
             864.75,184.25 864.75,152.00 862.88,149.75
             862.12,148.87 861.13,146.25 860.62,144.00
             860.25,141.88 859.38,140.00 858.75,140.00
             858.12,140.00 857.38,138.25 856.88,136.25
             856.38,134.12 855.50,132.50 854.88,132.50
             854.25,132.50 853.75,131.88 853.75,131.25
             853.75,127.75 835.25,110.00 831.63,110.00
             830.75,110.00 830.00,109.38 830.00,108.75
             830.00,108.00 829.13,107.50 828.12,107.50
             827.12,107.50 826.25,106.88 826.25,106.25
             826.25,105.50 825.50,105.00 824.75,105.00
             823.88,105.00 821.50,104.12 819.38,103.00
             817.38,101.88 812.62,100.75 809.00,100.37
             805.38,100.00 802.12,99.12 801.75,98.62
             800.88,97.12 784.13,97.25 783.12,98.75 Z
           M 609.12,97.12
           C 606.88,97.37 605.00,98.12 605.00,98.87
             605.00,99.50 603.75,100.00 602.25,100.00
             598.50,100.00 584.25,107.12 580.00,111.12
             578.12,112.87 575.38,115.25 573.88,116.25
             572.50,117.25 571.25,118.62 571.25,119.38
             571.12,120.00 569.50,122.00 567.50,123.75
             565.38,125.37 563.75,127.50 563.75,128.38
             563.75,129.25 563.25,130.00 562.62,130.00
             562.00,130.00 561.12,131.62 560.62,133.75
             560.12,135.75 559.38,137.50 558.88,137.50
             556.50,137.50 552.25,156.12 552.25,166.25
             552.25,176.37 556.50,195.00 558.88,195.00
             559.38,195.00 560.12,196.62 560.62,198.75
             561.12,200.75 562.00,202.50 562.62,202.50
             563.25,202.50 563.75,203.25 563.75,204.25
             563.75,206.75 581.62,224.38 586.25,226.50
             588.25,227.37 590.00,228.50 590.00,229.00
             590.00,229.62 592.00,230.00 594.38,230.00
             596.75,230.00 598.75,230.50 598.75,231.12
             598.75,231.75 601.88,232.75 605.62,233.12
             609.38,233.62 612.50,234.50 612.50,235.12
             612.50,235.75 617.62,236.25 623.75,236.25
             630.00,236.25 635.00,235.75 635.00,235.12
             635.00,234.62 638.38,233.75 642.50,233.25
             646.63,232.75 650.00,231.88 650.00,231.25
             650.00,230.50 651.38,230.00 653.12,230.00
             656.75,230.00 664.50,225.88 669.88,220.88
             672.00,219.00 674.25,217.50 675.00,217.50
             675.62,217.50 676.25,217.12 676.25,216.50
             676.25,216.00 678.25,213.38 680.62,210.75
             683.00,208.00 685.00,205.12 685.00,204.25
             685.00,203.38 685.38,202.50 686.00,202.25
             686.50,202.00 688.50,198.75 690.38,194.87
             693.62,188.62 696.63,174.75 696.63,166.25
             696.63,157.75 693.62,143.87 690.38,137.62
             688.50,133.75 686.50,130.38 686.00,130.25
             685.38,130.00 685.00,129.25 685.00,128.50
             685.00,126.63 678.38,119.50 668.88,111.12
             664.50,107.12 650.12,100.00 646.75,100.00
             645.38,100.00 643.62,99.38 642.88,98.62
             641.38,97.12 616.50,96.00 609.12,97.12 Z" />
</svg>
